<svg width="2773" height="3695" viewBox="0 0 2773 3695" fill="none" xmlns="http://www.w3.org/2000/svg">
<path d="M88.0573 1323.34C382.969 948.936 677.882 574.536 972.792 200.232C1183.13 -66.744 1585.46 -66.744 1795.8 200.232C2109.24 598.056 2422.77 995.98 2736.21 1393.9C2810.61 1488.65 2735.35 1624.49 2618.23 1616.04C2447.83 1616.04 2277.33 1616.04 2106.84 1616.04C2064.6 1616.04 2025.05 1596.74 1999.03 1563.71C1997.11 1561.31 1771.03 1271.6 1748.09 1241.84C1686.84 1162.44 1625.59 1083.15 1498.29 921.672C1411.13 811.176 1343.06 821.448 1269.81 920.328C1138.29 1089.48 1006.77 1258.54 875.252 1427.68C828.692 1487.68 742.202 1498.54 682.202 1451.88C622.202 1405.23 611.352 1318.83 658.012 1258.83C834.172 1033.23 1010.33 807.72 1186.49 582.216C1300.53 439.656 1432.53 421.512 1573.37 582.696L1965.33 1074.03C2019.48 1144.2 2073.62 1214.38 2173.85 1341.77C2230.97 1341.77 2287.99 1341.77 2345.01 1341.77C2089.85 1017.87 1851.19 714.888 1596.02 390.984C1495.89 263.88 1268.28 269.448 1168.15 396.552C873.242 770.952 599.162 1118.86 304.249 1493.26C235.417 1580.72 295.609 1707.53 408.217 1707.53C1058.9 1707.53 1709.69 1707.53 2360.37 1707.53C2438.81 1707.53 2512.82 1729.32 2576.76 1769.36C2610.65 1790.57 2641.37 1816.78 2667.67 1847.31C2789.97 1984.97 2817.91 2201.45 2684.37 2371.07C2389.46 2745.39 2094.55 3119.79 1799.64 3494.19C1589.3 3761.07 1186.97 3761.16 976.632 3494.19C663.192 3096.27 349.753 2698.35 36.2173 2300.43C-38.1827 2205.77 37.1773 2069.93 154.201 2078.38C324.697 2078.28 495.097 2078.27 665.592 2078.27C707.832 2078.27 747.382 2097.58 773.402 2130.7C775.322 2133.1 1001.4 2422.73 1024.44 2452.58C1085.59 2531.88 1146.84 2611.27 1274.23 2772.74C1361.3 2883.23 1429.37 2872.96 1502.61 2773.99C1634.13 2604.94 1765.65 2435.78 1897.17 2266.72C1943.83 2206.72 2030.23 2195.88 2090.23 2242.53C2150.23 2289.09 2161.08 2375.59 2114.42 2435.59C1938.26 2661.09 1762.1 2886.6 1585.94 3112.2C1471.89 3254.67 1339.89 3272.91 1199.16 3111.72L807.092 2620.4C752.952 2550.22 698.812 2479.95 598.582 2352.55C541.562 2352.55 484.441 2352.55 427.417 2352.55C682.582 2676.46 921.242 2979.53 1176.41 3303.33C1276.53 3430.44 1504.15 3424.88 1604.28 3297.76C1899.19 2923.36 2173.27 2575.47 2468.18 2201.06C2537.01 2113.6 2476.82 1986.89 2364.21 1986.89C1713.53 1986.89 1062.74 1986.89 412.057 1986.89C81.5293 1986.89 -127.943 1597.71 88.0573 1323.34Z" fill="white"/>
</svg>
